<?xml version="1.0" standalone="no"?>
<!DOCTYPE svg PUBLIC "-//W3C//DTD SVG 20010904//EN"
 "http://www.w3.org/TR/2001/REC-SVG-20010904/DTD/svg10.dtd">
<svg version="1.0" xmlns="http://www.w3.org/2000/svg"
 width="1248.000000pt" height="309.000000pt" viewBox="0 0 1248.000000 309.000000"
 preserveAspectRatio="xMidYMid meet">

<g transform="translate(0.000000,309.000000) scale(0.100000,-0.100000)"
fill="#000000" stroke="none">
<path d="M11801 1843 c1 -32 4 -46 6 -30 3 21 10 27 29 27 13 0 24 5 24 10 0
6 -11 10 -25 10 -14 0 -25 5 -25 10 0 6 11 10 25 10 14 0 25 5 25 10 0 6 -13
10 -30 10 l-30 0 1 -57z"/>
<path d="M11960 1852 c0 -29 3 -52 8 -52 8 0 7 88 -2 97 -3 3 -6 -17 -6 -45z"/>
<path d="M11990 1845 c0 -25 5 -45 10 -45 6 0 10 20 10 45 0 25 -4 45 -10 45
-5 0 -10 -20 -10 -45z"/>
<path d="M11885 1860 c-4 -7 3 -9 22 -5 l28 6 -28 -16 c-36 -21 -32 -50 6 -51
25 -1 27 2 27 37 0 35 -3 39 -24 39 -14 0 -28 -5 -31 -10z m40 -40 c-3 -5 -13
-10 -21 -10 -8 0 -12 5 -9 10 3 6 13 10 21 10 8 0 12 -4 9 -10z"/>
<path d="M12028 1833 c6 -2 18 -2 25 0 6 3 1 5 -13 5 -14 0 -19 -2 -12 -5z"/>
<path d="M342 1670 c-12 -27 -17 -50 -13 -50 5 0 11 7 15 15 3 8 15 15 26 15
11 0 23 -7 26 -15 4 -8 10 -15 14 -15 5 0 -1 23 -13 50 -11 28 -24 50 -28 50
-3 0 -16 -22 -27 -50z m38 10 c0 -5 -4 -10 -10 -10 -5 0 -10 5 -10 10 0 6 5
10 10 10 6 0 10 -4 10 -10z"/>
<path d="M507 1707 c-2 -7 -1 -30 3 -52 7 -39 8 -39 9 -7 1 43 31 45 31 2 0
-16 3 -30 8 -30 6 0 7 39 3 88 -1 16 -47 16 -54 -1z"/>
<path d="M663 1670 c-1 -30 1 -47 4 -37 5 21 22 22 29 2 4 -8 10 -15 15 -15 6
0 5 9 -1 20 -6 12 -8 31 -4 43 7 22 6 22 -14 4 -20 -18 -21 -18 -25 10 -2 15
-4 3 -4 -27z"/>
<path d="M737 1713 c-9 -8 -9 -56 -1 -77 11 -29 19 -17 18 29 -1 46 -6 60 -17
48z"/>
<path d="M11978 1708 c-3 -7 -3 -29 -1 -49 5 -36 5 -36 54 -38 48 -1 49 0 49
28 0 16 -7 34 -15 41 -18 15 -49 5 -42 -13 7 -18 -19 -52 -28 -37 -4 6 -4 21
-1 33 6 26 -8 58 -16 35z m79 -34 c-3 -3 -12 -4 -19 -1 -8 3 -5 6 6 6 11 1 17
-2 13 -5z m3 -23 c0 -12 -20 -25 -27 -18 -7 7 6 27 18 27 5 0 9 -4 9 -9z"/>
<path d="M12098 1708 c-6 -17 2 -88 11 -88 7 0 7 88 -1 95 -3 3 -8 0 -10 -7z"/>
<path d="M431 1663 c-1 -41 0 -43 29 -43 28 0 30 3 30 35 0 40 -17 48 -22 10
-4 -36 -22 -32 -29 7 -6 32 -6 31 -8 -9z"/>
<path d="M595 1691 c-3 -6 2 -11 12 -12 15 0 14 -2 -5 -11 -32 -16 -24 -42 14
-46 31 -3 31 -3 25 35 -6 37 -32 56 -46 34z m35 -40 c0 -14 -18 -23 -31 -15
-8 4 -7 9 2 15 18 11 29 11 29 0z"/>
<path d="M11541 1640 c1 -30 3 -47 6 -37 2 9 13 17 23 17 11 0 24 9 30 20 16
29 -4 60 -35 58 -24 -2 -25 -6 -24 -58z m47 18 c-4 -27 -23 -34 -32 -13 -8 21
1 35 20 35 10 0 14 -8 12 -22z"/>
<path d="M11633 1693 c-15 -6 -18 -73 -3 -73 6 0 10 14 10 30 0 17 5 30 10 30
6 0 10 5 10 10 0 11 -7 12 -27 3z"/>
<path d="M11677 1694 c-14 -14 -7 -22 16 -18 l22 5 -22 -12 c-35 -18 -30 -49
8 -49 29 0 30 2 27 38 -2 28 -8 38 -23 40 -12 2 -24 0 -28 -4z m25 -56 c-6 -6
-15 -8 -19 -4 -4 4 -1 11 7 16 19 12 27 3 12 -12z"/>
<path d="M11754 1686 c-7 -19 3 -36 22 -36 8 0 14 -5 14 -11 0 -7 -10 -9 -26
-5 -17 5 -23 3 -19 -4 3 -5 17 -10 31 -10 17 0 24 5 24 20 0 11 -6 20 -14 20
-8 0 -18 5 -22 12 -5 8 0 9 15 5 14 -3 21 -1 18 6 -6 18 -36 20 -43 3z"/>
<path d="M11824 1686 c-17 -43 21 -86 50 -56 8 9 6 11 -11 6 -12 -4 -24 -2
-28 4 -4 6 4 10 19 10 28 0 34 18 14 38 -16 16 -37 15 -44 -2z m46 -10 c0 -9
-30 -14 -35 -6 -4 6 3 10 14 10 12 0 21 -2 21 -4z"/>
<path d="M11901 1656 c1 -38 2 -39 8 -11 3 17 13 30 21 30 8 0 18 -13 22 -30
6 -26 6 -25 5 10 -2 36 -5 40 -29 41 -26 1 -28 -1 -27 -40z"/>
<path d="M12168 1675 c-14 -30 5 -57 36 -53 39 6 29 78 -10 78 -8 0 -19 -11
-26 -25z m47 -20 c0 -28 -29 -25 -33 3 -3 19 0 23 15 20 10 -2 18 -12 18 -23z"/>
<path d="M12252 1656 c1 -37 2 -38 5 -8 6 42 33 44 33 2 0 -16 5 -30 10 -30
14 0 12 56 -2 67 -7 6 -21 10 -30 10 -15 0 -18 -8 -16 -41z"/>
<path d="M12130 1655 c0 -19 5 -35 10 -35 6 0 10 16 10 35 0 19 -4 35 -10 35
-5 0 -10 -16 -10 -35z"/>
<path d="M770 1660 c0 -5 9 -10 21 -10 11 0 17 5 14 10 -3 6 -13 10 -21 10 -8
0 -14 -4 -14 -10z"/>
<path d="M12020 1536 c0 -9 -7 -12 -19 -9 -13 3 -21 -2 -26 -16 -10 -34 3 -61
31 -61 22 0 24 4 24 50 0 28 -2 50 -5 50 -3 0 -5 -6 -5 -14z m0 -46 c0 -21
-24 -28 -35 -10 -8 14 3 30 21 30 8 0 14 -9 14 -20z"/>
<path d="M578 1528 c-7 -18 3 -88 11 -88 8 0 7 88 -1 96 -3 3 -8 -1 -10 -8z"/>
<path d="M690 1490 c0 -27 5 -50 10 -50 6 0 10 23 10 50 0 28 -4 50 -10 50 -5
0 -10 -22 -10 -50z"/>
<path d="M728 1528 c-7 -18 3 -88 11 -88 8 0 7 88 -1 96 -3 3 -8 -1 -10 -8z"/>
<path d="M11821 1493 c-1 -40 0 -42 29 -41 28 1 30 4 30 40 0 46 -17 51 -22 6
-4 -42 -21 -39 -29 4 -6 32 -6 32 -8 -9z"/>
<path d="M11897 1524 c-11 -11 -8 -74 3 -74 6 0 10 14 10 30 0 20 5 30 15 30
10 0 15 -10 15 -31 0 -16 4 -28 9 -25 17 11 -4 71 -25 74 -11 2 -23 0 -27 -4z"/>
<path d="M153 1485 c7 -19 17 -34 22 -34 6 0 15 15 22 34 7 19 8 35 4 35 -5 0
-12 -12 -16 -27 l-8 -28 -10 28 c-16 40 -28 33 -14 -8z"/>
<path d="M227 1514 c-4 -4 -7 -20 -7 -36 0 -31 20 -45 48 -32 14 6 12 8 -13
14 l-30 8 28 1 c23 1 28 5 25 24 -3 22 -36 36 -51 21z m38 -14 c3 -5 -3 -10
-15 -10 -12 0 -18 5 -15 10 3 6 10 10 15 10 5 0 12 -4 15 -10z"/>
<path d="M301 1478 c2 -34 3 -37 6 -13 3 16 12 35 21 42 15 11 15 12 -5 13
-21 0 -23 -5 -22 -42z"/>
<path d="M355 1510 c-5 -9 -1 -10 14 -5 30 9 26 -4 -5 -15 -37 -14 -28 -44 14
-48 33 -3 33 -3 30 35 -2 30 -7 39 -25 41 -11 2 -24 -2 -28 -8z m35 -40 c0 -5
-7 -10 -16 -10 -8 0 -12 5 -9 10 3 6 10 10 16 10 5 0 9 -4 9 -10z"/>
<path d="M428 1484 c-2 -19 -1 -37 3 -40 4 -2 9 10 11 28 4 42 21 39 29 -4 4
-26 7 -29 13 -15 14 30 -2 67 -28 67 -20 0 -25 -6 -28 -36z"/>
<path d="M505 1510 c-9 -14 13 -40 34 -41 9 -1 3 -5 -14 -9 -25 -6 -27 -8 -12
-14 9 -5 24 -6 32 -2 22 8 18 37 -5 43 -11 3 -20 10 -20 15 0 5 10 6 21 3 15
-5 19 -4 15 4 -9 14 -43 14 -51 1z"/>
<path d="M614 1509 c-4 -8 0 -9 15 -4 11 3 21 2 21 -3 0 -5 -9 -12 -21 -15
-33 -9 -20 -42 16 -44 29 -1 30 0 27 38 -4 33 -8 39 -27 39 -13 0 -27 -5 -31
-11z m46 -39 c0 -5 -10 -10 -22 -10 -19 0 -20 2 -8 10 19 13 30 13 30 0z"/>
<path d="M774 1485 c1 -36 4 -40 26 -40 22 0 25 5 28 38 2 21 -1 37 -7 37 -6
0 -11 -13 -11 -30 0 -42 -27 -40 -33 3 -4 26 -4 24 -3 -8z"/>
<path d="M842 1489 c-3 -44 12 -62 18 -21 3 18 10 33 15 33 6 0 13 -15 16 -33
6 -32 6 -31 8 10 1 40 -1 42 -27 42 -24 0 -28 -4 -30 -31z"/>
<path d="M924 1506 c-10 -25 0 -50 24 -62 27 -13 14 -28 -15 -18 -14 5 -15 4
-7 -5 7 -7 20 -11 30 -9 15 2 20 14 22 56 3 50 2 52 -23 52 -14 0 -28 -6 -31
-14z m44 -24 c2 -14 -2 -22 -12 -22 -19 0 -29 17 -22 36 8 22 30 12 34 -14z"/>
<path d="M11595 1382 c-3 -3 -5 -27 -5 -54 0 -47 1 -48 30 -48 40 0 68 40 52
75 -7 14 -15 25 -19 26 -5 0 -18 2 -31 3 -12 2 -24 0 -27 -2z m60 -47 c0 -25
-4 -30 -27 -33 -25 -3 -28 0 -28 26 0 35 8 44 35 40 15 -2 20 -10 20 -33z"/>
<path d="M431 1323 c1 -32 4 -48 6 -36 3 15 13 23 30 25 58 7 51 68 -8 68 -29
0 -29 -1 -28 -57z m59 22 c0 -9 -9 -15 -25 -15 -16 0 -25 6 -25 15 0 9 9 15
25 15 16 0 25 -6 25 -15z"/>
<path d="M11790 1330 c0 -27 5 -50 10 -50 6 0 10 10 10 23 l0 22 20 -25 c21
-27 26 -21 9 11 -7 15 -7 24 2 35 14 17 -2 19 -19 2 -9 -9 -12 -7 -12 10 0 12
-4 22 -10 22 -5 0 -10 -22 -10 -50z"/>
<path d="M520 1325 c0 -25 5 -45 10 -45 6 0 10 20 10 45 0 25 -4 45 -10 45 -5
0 -10 -20 -10 -45z"/>
<path d="M11690 1319 c0 -24 4 -38 10 -34 6 3 10 22 10 41 0 19 -4 34 -10 34
-5 0 -10 -18 -10 -41z"/>
<path d="M11725 1350 c-9 -14 13 -40 34 -41 9 -1 3 -5 -14 -9 -25 -6 -27 -8
-12 -14 9 -5 24 -6 32 -2 22 8 18 37 -5 43 -11 3 -20 10 -20 15 0 5 10 6 21 3
15 -5 19 -4 15 4 -9 14 -43 14 -51 1z"/>
<path d="M11874 1325 c1 -37 3 -40 29 -40 25 -1 27 2 27 37 0 21 -4 38 -10 38
-5 0 -10 -13 -10 -30 0 -42 -27 -40 -33 3 -4 26 -4 24 -3 -8z"/>
<path d="M11945 1350 c-9 -14 13 -40 34 -41 9 -1 3 -5 -14 -9 -25 -6 -27 -8
-12 -14 9 -5 24 -6 32 -2 22 8 18 37 -5 43 -11 3 -20 10 -20 15 0 5 10 6 21 3
15 -5 19 -4 15 4 -9 14 -43 14 -51 1z"/>
<path d="M12017 1346 c-6 -15 6 -29 33 -39 10 -4 7 -6 -7 -6 -13 -1 -23 -6
-23 -12 0 -6 10 -9 22 -7 30 4 37 38 9 45 -12 3 -21 10 -21 15 0 5 10 6 21 3
15 -5 19 -4 15 4 -10 16 -43 14 -49 -3z"/>
<path d="M12093 1320 c0 -25 2 -35 4 -22 2 12 2 32 0 45 -2 12 -4 2 -4 -23z"/>
<path d="M12124 1346 c-3 -8 -4 -25 -2 -38 2 -17 9 -23 28 -23 22 0 25 4 25
35 0 29 -4 36 -23 38 -13 2 -24 -3 -28 -12z m44 -24 c3 -17 -2 -22 -17 -22
-14 0 -21 6 -21 18 0 38 33 41 38 4z"/>
<path d="M12201 1318 c1 -28 3 -34 6 -16 2 14 11 32 18 38 16 13 20 8 29 -40
2 -14 3 -7 3 15 -2 36 -5 40 -29 43 -27 3 -28 2 -27 -40z"/>
<path d="M243 1310 c0 -25 2 -35 4 -22 2 12 2 32 0 45 -2 12 -4 2 -4 -23z"/>
<path d="M271 1307 c2 -42 2 -42 8 -8 8 45 31 54 31 12 0 -37 17 -42 22 -6 4
36 22 32 29 -7 6 -32 6 -32 8 9 l1 41 -50 0 -50 1 1 -42z"/>
<path d="M554 1325 c-8 -34 16 -62 43 -50 16 8 16 9 -4 12 -31 6 -29 23 3 23
36 0 29 34 -8 38 -22 3 -29 -2 -34 -23z m46 5 c0 -5 -7 -10 -15 -10 -8 0 -15
5 -15 10 0 6 7 10 15 10 8 0 15 -4 15 -10z"/>
<path d="M637 1313 c2 -51 5 -54 12 -14 8 45 31 54 31 12 0 -17 5 -31 11 -31
6 0 9 14 7 33 -3 27 -7 32 -33 35 -29 3 -30 1 -28 -35z"/>
<path d="M710 1321 c0 -33 20 -54 44 -45 11 4 16 17 14 43 l-1 36 -4 -32 c-6
-43 -33 -45 -33 -3 0 17 -4 30 -10 30 -5 0 -10 -13 -10 -29z"/>
<path d="M790 1309 c0 -22 4 -38 9 -35 5 3 7 14 5 24 -6 23 11 47 25 37 7 -4
11 -17 10 -28 -2 -38 3 -43 10 -9 3 18 11 33 16 33 6 0 13 -15 16 -33 6 -32 6
-32 8 9 l1 41 -50 0 -50 1 0 -40z"/>
<path d="M11791 1158 c0 -44 2 -49 10 -29 6 14 15 21 24 17 8 -3 21 2 30 10
23 23 2 54 -35 54 -30 0 -30 -1 -29 -52z m59 17 c0 -9 -9 -15 -25 -15 -16 0
-25 6 -25 15 0 9 9 15 25 15 16 0 25 -6 25 -15z"/>
<path d="M11880 1161 c0 -28 5 -51 10 -51 6 0 10 20 10 44 0 25 -4 48 -10 51
-6 4 -10 -13 -10 -44z"/>
<path d="M11648 1182 c-14 -2 -18 -13 -17 -40 1 -35 2 -36 8 -8 9 41 31 46 31
7 0 -17 5 -31 10 -31 6 0 10 14 10 31 0 39 22 34 31 -7 6 -28 7 -28 8 7 1 36
-21 60 -35 38 -3 -6 -11 -6 -17 -1 -7 5 -20 7 -29 4z"/>
<path d="M11921 1177 c-27 -27 -1 -84 33 -71 23 9 20 23 -4 17 -11 -3 -20 0
-20 6 0 6 11 11 25 11 26 0 30 7 17 26 -12 17 -39 23 -51 11z m39 -17 c0 -5
-7 -10 -15 -10 -8 0 -15 5 -15 10 0 6 7 10 15 10 8 0 15 -4 15 -10z"/>
<path d="M12008 1182 c-13 -2 -18 -13 -18 -38 0 -19 5 -34 10 -34 6 0 10 14
10 30 0 42 27 40 33 -2 l4 -33 1 36 c2 38 -9 49 -40 41z"/>
<path d="M12168 1182 c-14 -2 -18 -13 -17 -40 1 -35 2 -36 8 -8 9 41 31 46 31
7 0 -17 5 -31 10 -31 6 0 10 14 10 30 0 42 27 40 33 -2 l4 -33 1 36 c2 36 -20
60 -34 38 -3 -6 -11 -6 -17 -1 -7 5 -20 7 -29 4z"/>
<path d="M11603 1145 c0 -22 2 -30 4 -17 2 12 2 30 0 40 -3 9 -5 -1 -4 -23z"/>
<path d="M12070 1152 c0 -34 15 -51 41 -45 15 4 19 14 18 42 -1 35 -2 35 -8 7
-9 -41 -31 -46 -31 -7 0 17 -4 31 -10 31 -5 0 -10 -13 -10 -28z"/>
</g>
</svg>
